<?xml version="1.0" encoding="UTF-8" standalone="no"?>
<svg
   xml:space="preserve"
   width="412.876"
   height="59mm"
   viewBox="0 0 109.24 59"
   version="1.1"
   id="svg8"
   sodipodi:docname="razamy_logo_left_lent.svg"
   inkscape:version="1.3.2 (091e20e, 2023-11-25, custom)"
   xmlns:inkscape="http://www.inkscape.org/namespaces/inkscape"
   xmlns:sodipodi="http://sodipodi.sourceforge.net/DTD/sodipodi-0.dtd"
   xmlns="http://www.w3.org/2000/svg"
   xmlns:svg="http://www.w3.org/2000/svg"><defs
   id="defs8" /><sodipodi:namedview
   id="namedview8"/>
  <path
   fill="#b66cd9"
   stroke="#b76dd9"
   stroke-width="1.7"
   d="m89.099 89.926-29.873.092a2.694 2.694 116.74 0 0-2.162 4.291l15.283 20.774a3.196 3.196 179.1 0 0 5.207-.081L91.58 94.63a3.002 3.002 62.187 0 0-2.482-4.705z"
   id="path2"
   transform="matrix(.98768 -.53258 .52218 .93209 -74.72 -12.692)" />
  <path
   fill="#f6f9fb"
   d="M61.158 28.608a2.706 2.623-13.288 0 1-1.095 3.574 2.706 2.623-13.288 0 1-3.66-1.016 2.706 2.623-13.288 0 1 1.095-3.574 2.706 2.623-13.288 0 1 3.66 1.016z"
   id="path4" />
</svg>
