<svg xmlns="http://www.w3.org/2000/svg" xml:space="preserve" width="412.876" height="59mm" viewBox="0 0 109.24 59"><path fill="#b66cd9" stroke="#b76dd9" stroke-width=".9" d="M-14.547 235.41h44.199v2.768h-41.029a2.976 2.976 41.129 0 1-3.17-2.768z" transform="matrix(1.0941 -.22732 .19824 .96668 -29.24 -184.283)"/>
  <path fill="#b66cd9" stroke="#b76dd9" stroke-width="1.7"
        d="m89.099 89.926-29.873.092a2.694 2.694 116.74 0 0-2.162 4.291l15.283 20.774a3.196 3.196 179.1 0 0 5.207-.081L91.58 94.63a3.002 3.002 62.187 0 0-2.482-4.705z"
        transform="matrix(.98768 -.53258 .52218 .93209 -74.72 -12.692)"/>
  <path fill="none"
        d="M58.51 56.233a4.652 4.652 0 0 1-1.319-.17c-1.257-.398-26.682-11.494-27.028-11.796-1.018-.887-1.159-2.435-.333-3.67l.324-.485 15.17-8.265c16.753-9.128 15.807-8.661 17.159-8.46 1.169.173 2.254 1.13 2.526 2.226.092.37-.354 4.517-1.507 14.035-.9 7.43-1.702 13.758-1.78 14.062-.349 1.339-1.786 2.468-3.212 2.523zM44.973 27.562a3.443 2.478-27.294 0 1 .23 1.022l-3.261.61z"/>
  <path fill="#f6f9fb"
        d="M61.158 28.608a2.706 2.623-13.288 0 1-1.095 3.574 2.706 2.623-13.288 0 1-3.66-1.016 2.706 2.623-13.288 0 1 1.095-3.574 2.706 2.623-13.288 0 1 3.66 1.016z"/>
  <path fill="none"
        d="M44.53 49.62c-7.9-3.42-13.518-5.95-13.781-6.204-.34-.328-.445-.61-.445-1.192 0-.998.296-1.3 2.394-2.446.933-.51 3.937-2.142 6.675-3.628a41367.1 41367.1 0 0 0 13.374-7.263c7.417-4.03 8.486-4.561 9.179-4.561.89 0 1.566.421 2.001 1.247.283.537.112 2.116-2.674 24.73-.438 3.557-.543 3.868-1.545 4.602-1.133.83-.75.963-15.178-5.284zm15.695-17.442c.833-.498 1.286-1.32 1.287-2.336.002-2.057-2.047-3.287-3.901-2.342-1.026.523-1.465 1.138-1.557 2.178-.09 1.038.317 1.891 1.173 2.452.789.517 2.177.54 2.998.048z"/>
  <path fill="#345675" stroke="#345574" stroke-width=".9"
        d="M-14.547 235.41h44.199v2.768h-41.029a2.976 2.976 41.129 0 1-3.17-2.768z"
        transform="matrix(1.0941 -.22732 .19824 .96668 16.95 -218.233)"/>
  <path fill="#345675" stroke="#345574" stroke-width="1.782"
        d="M105.02 7.244c5.233 9.52 1.345 21.704-8.682 27.215-10.028 5.511-21.992 2.028-27.631-7.257-4.552-7.494 3.268-12.524 13.296-18.035C92.03 3.656 99.788-2.275 105.02 7.244z"/>
  <path fill="none" stroke="#fff" stroke-width="2.905" d="M92.93 9.923c6.75-3.907 8.393 1.79 9.037 2.975"/></svg>
